<?xml version="1.0" encoding="UTF-8" standalone="no"?>
<svg
   xmlns:dc="http://purl.org/dc/elements/1.1/"
   xmlns:cc="http://creativecommons.org/ns#"
   xmlns:rdf="http://www.w3.org/1999/02/22-rdf-syntax-ns#"
   xmlns:svg="http://www.w3.org/2000/svg"
   xmlns="http://www.w3.org/2000/svg"
   xmlns:sodipodi="http://sodipodi.sourceforge.net/DTD/sodipodi-0.dtd"
   xmlns:inkscape="http://www.inkscape.org/namespaces/inkscape"
   width="150mm"
   height="60mm"
   viewBox="0 0 150 60"
   version="1.1"
   id="svg8"
   inkscape:version="1.0 (4035a4fb49, 2020-05-01)"
   sodipodi:docname="logo_mateboy.svg">
  <defs
     id="defs2" />
  <sodipodi:namedview
     inkscape:guide-bbox="true"
     showguides="true"
     id="base"
     pagecolor="#ffffff"
     bordercolor="#666666"
     borderopacity="1.0"
     inkscape:pageopacity="0.0"
     inkscape:pageshadow="2"
     inkscape:zoom="0.96028881"
     inkscape:cx="294.64929"
     inkscape:cy="155.79813"
     inkscape:document-units="mm"
     inkscape:current-layer="layer1"
     inkscape:document-rotation="0"
     showgrid="false"
     inkscape:window-width="1366"
     inkscape:window-height="702"
     inkscape:window-x="-8"
     inkscape:window-y="-8"
     inkscape:window-maximized="1" />
  <metadata
     id="metadata5">
    <rdf:RDF>
      <cc:Work
         rdf:about="">
        <dc:format>image/svg+xml</dc:format>
        <dc:type
           rdf:resource="http://purl.org/dc/dcmitype/StillImage" />
        <dc:title></dc:title>
      </cc:Work>
    </rdf:RDF>
  </metadata>
  <g
     inkscape:label="Layer 1"
     inkscape:groupmode="layer"
     id="layer1">
    <circle
       r="22.404924"
       cy="30"
       cx="26.012278"
       id="path2061"
       style="fill:#772e25;fill-opacity:1;fill-rule:evenodd;stroke:none;stroke-width:0.362227" />
    <path
       d="m 32.836926,22.020031 a 0.30889575,0.30889575 0 0 0 -0.22066,0.09043 l -2.22105,2.221058 a 0.30889575,0.30889575 0 0 0 0,0.43718 0.30889575,0.30889575 0 0 0 0.43666,0 l 2.22106,-2.221056 a 0.30889575,0.30889575 0 0 0 0,-0.437182 0.30889575,0.30889575 0 0 0 -0.21601,-0.09043 z m 3.48402,0 a 0.30889575,0.30889575 0 0 0 -0.22065,0.09043 l -5.70508,5.705078 a 0.30889575,0.30889575 0 0 0 0,0.43718 0.30889575,0.30889575 0 0 0 0.43666,0 l 5.70508,-5.705076 a 0.30889575,0.30889575 0 0 0 0,-0.437182 0.30889575,0.30889575 0 0 0 -0.21601,-0.09043 z m -5.22655,5.16e-4 a 0.30889575,0.30889575 0 0 0 -0.22066,0.09043 l -0.47904,0.479042 a 0.30889575,0.30889575 0 0 0 0,0.436665 0.30889575,0.30889575 0 0 0 0.43718,0 l 0.47904,-0.479041 a 0.30889575,0.30889575 0 0 0 0,-0.436666 0.30889575,0.30889575 0 0 0 -0.21652,-0.09043 z m 3.48402,0 a 0.30889575,0.30889575 0 0 0 -0.22065,0.09043 l -3.96307,3.963072 a 0.30889575,0.30889575 0 0 0 0,0.43666 0.30889575,0.30889575 0 0 0 0.43718,0 l 3.96307,-3.963066 a 0.30889575,0.30889575 0 0 0 0,-0.436666 0.30889575,0.30889575 0 0 0 -0.21653,-0.09043 z m 3.48403,0 a 0.30889575,0.30889575 0 0 0 -0.22066,0.09043 l -2.67374,2.673742 a 0.30889575,0.30889575 0 0 0 0,0.43666 0.30889575,0.30889575 0 0 0 0.43719,0 l 2.67373,-2.673736 a 0.30889575,0.30889575 0 0 0 0,-0.436666 0.30889575,0.30889575 0 0 0 -0.21652,-0.09043 z m 1.62988,0.112138 a 0.30889575,0.30889575 0 0 0 -0.22066,0.09043 l -2.56109,2.561084 a 0.30889575,0.30889575 0 0 0 0,0.43718 0.30889575,0.30889575 0 0 0 0.43667,0 l 2.56108,-2.561083 a 0.30889575,0.30889575 0 0 0 0,-0.437181 0.30889575,0.30889575 0 0 0 -0.216,-0.09043 z m 1.41076,0.331248 a 0.30889575,0.30889575 0 0 0 -0.22066,0.09043 l -2.33939,2.339386 a 0.30889575,0.30889575 0 0 0 0,0.43667 0.30889575,0.30889575 0 0 0 0.43718,0 l 2.3394,-2.339391 a 0.30889575,0.30889575 0 0 0 0,-0.436665 0.30889575,0.30889575 0 0 0 -0.21653,-0.09043 z m 1.18132,0.560689 a 0.30889575,0.30889575 0 0 0 -0.22065,0.09043 l -2.38332,2.383317 a 0.30889575,0.30889575 0 0 0 0,0.43718 0.30889575,0.30889575 0 0 0 0.43667,0 l 2.38331,-2.38331 a 0.30889575,0.30889575 0 0 0 0,-0.437187 0.30889575,0.30889575 0 0 0 -0.21601,-0.09043 z m 0.90796,0.834057 a 0.30889575,0.30889575 0 0 0 -0.22066,0.0904 l -2.90473,2.90473 a 0.30889575,0.30889575 0 0 0 0,0.43667 0.30889575,0.30889575 0 0 0 0.43718,0 l 2.90473,-2.90473 a 0.30889575,0.30889575 0 0 0 0,-0.43667 0.30889575,0.30889575 0 0 0 -0.21652,-0.0904 z m 0.58704,1.15496 a 0.30889575,0.30889575 0 0 0 -0.22065,0.0904 l -5.88285,5.88284 a 0.30889575,0.30889575 0 0 0 0,0.43719 0.30889575,0.30889575 0 0 0 0.43667,0 l 5.88284,-5.88285 a 0.30889575,0.30889575 0 0 0 0,-0.43718 0.30889575,0.30889575 0 0 0 -0.21601,-0.0904 z m -21.28707,0.38241 a 0.30889575,0.30889575 0 0 0 -0.22066,0.0909 l -6.86366,6.86366 a 0.30889575,0.30889575 0 0 0 0,0.43667 0.30889575,0.30889575 0 0 0 0.43718,0 l 6.86367,-6.86366 a 0.30889575,0.30889575 0 0 0 0,-0.43667 0.30889575,0.30889575 0 0 0 -0.21653,-0.0909 z m -8.76587,0.0558 a 0.30889575,0.30889575 0 0 0 -0.22014,0.0904 l -6.3386397,6.33863 a 0.30889575,0.30889575 0 0 0 0,0.43719 0.30889575,0.30889575 0 0 0 0.43667,0 l 6.3386297,-6.33863 a 0.30889575,0.30889575 0 0 0 0,-0.43719 0.30889575,0.30889575 0 0 0 -0.21652,-0.0904 z m 1.68672,0.0558 a 0.30889575,0.30889575 0 0 0 -0.22066,0.0904 l -3.03547,3.03548 a 0.30889575,0.30889575 0 0 0 0,0.43666 0.30889575,0.30889575 0 0 0 0.43718,0 l 3.03547,-3.03547 a 0.30889575,0.30889575 0 0 0 0,-0.43667 0.30889575,0.30889575 0 0 0 -0.21652,-0.0904 z m -5.28909,0.063 a 0.30889575,0.30889575 0 0 0 -0.2206497,0.0904 l -2.73576,2.73575 a 0.30889575,0.30889575 0 0 0 0,0.43718 0.30889575,0.30889575 0 0 0 0.43667,0 l 2.7357497,-2.73575 a 0.30889575,0.30889575 0 0 0 0,-0.43718 0.30889575,0.30889575 0 0 0 -0.21601,-0.0904 z m -1.7425197,5.2e-4 a 0.30889575,0.30889575 0 0 0 -0.22066,0.0904 l -0.99374,0.99373 a 0.30889575,0.30889575 0 0 0 0,0.43667 0.30889575,0.30889575 0 0 0 0.43718,0 l 0.99374,-0.99374 a 0.30889575,0.30889575 0 0 0 0,-0.43666 0.30889575,0.30889575 0 0 0 -0.21652,-0.0904 z m 15.6424497,0.0357 a 0.30889575,0.30889575 0 0 0 -0.22066,0.0904 l -2.83238,2.83239 a 0.30889575,0.30889575 0 0 0 0,0.43666 0.30889575,0.30889575 0 0 0 0.43718,0 l 2.83239,-2.83238 a 0.30889575,0.30889575 0 0 0 0,-0.43667 0.30889575,0.30889575 0 0 0 -0.21653,-0.0904 z m -3.68505,0.2005 a 0.30889575,0.30889575 0 0 0 -0.22065,0.0909 l -4.77387,4.77387 a 0.30889575,0.30889575 0 0 0 0,0.43719 0.30889575,0.30889575 0 0 0 0.43666,0 l 4.77439,-4.77439 a 0.30889575,0.30889575 0 0 0 0,-0.43667 0.30889575,0.30889575 0 0 0 -0.21653,-0.0909 z m 13.80485,0.13178 a 0.30889575,0.30889575 0 0 0 -0.22066,0.0904 l -3.52847,3.52847 a 0.30889575,0.30889575 0 0 0 0,0.43667 0.30889575,0.30889575 0 0 0 0.43718,0 l 3.52847,-3.52847 a 0.30889575,0.30889575 0 0 0 0,-0.43667 0.30889575,0.30889575 0 0 0 -0.21652,-0.0904 z m -17.43977,0.0191 a 0.30889575,0.30889575 0 0 0 -0.22014,0.0904 l -2.53421,2.53422 a 0.30889575,0.30889575 0 0 0 0,0.43718 0.30889575,0.30889575 0 0 0 0.43667,0 l 2.53421,-2.53421 a 0.30889575,0.30889575 0 0 0 0,-0.43719 0.30889575,0.30889575 0 0 0 -0.21653,-0.0904 z m 8.5509,0.15916 a 0.30889575,0.30889575 0 0 0 -0.22065,0.091 l -2.5151,2.5151 a 0.30889575,0.30889575 0 0 0 0,0.43666 0.30889575,0.30889575 0 0 0 0.43719,0 l 2.51509,-2.51509 a 0.30889575,0.30889575 0 0 0 0,-0.43667 0.30889575,0.30889575 0 0 0 -0.21653,-0.091 z m -7.55354,0.58601 a 0.30889575,0.30889575 0 0 0 -0.22066,0.0904 l -2.53938,2.53938 a 0.30889575,0.30889575 0 0 0 0,0.43666 0.30889575,0.30889575 0 0 0 0.43718,0 l 2.53938,-2.53938 a 0.30889575,0.30889575 0 0 0 0,-0.43666 0.30889575,0.30889575 0 0 0 -0.21652,-0.0904 z m 26.12657,0.004 a 0.30889575,0.30889575 0 0 0 -0.22066,0.0904 l -4.30826,4.30827 a 0.30889575,0.30889575 0 0 0 0,0.43667 0.30889575,0.30889575 0 0 0 0.43718,0 l 4.30826,-4.30827 a 0.30889575,0.30889575 0 0 0 0,-0.43667 0.30889575,0.30889575 0 0 0 -0.21652,-0.0904 z m -33.17472,0.0765 a 0.30889575,0.30889575 0 0 0 -0.22066,0.0904 l -3.2654297,3.26544 a 0.30889575,0.30889575 0 0 0 0,0.43666 0.30889575,0.30889575 0 0 0 0.43718,0 l 3.2654297,-3.26543 a 0.30889575,0.30889575 0 0 0 0,-0.43667 0.30889575,0.30889575 0 0 0 -0.21652,-0.0904 z m 15.52205,0.15606 a 0.30889575,0.30889575 0 0 0 -0.22066,0.0904 l -2.61741,2.61741 a 0.30889575,0.30889575 0 0 0 0,0.43667 0.30889575,0.30889575 0 0 0 0.43718,0 l 2.61742,-2.61742 a 0.30889575,0.30889575 0 0 0 0,-0.43666 0.30889575,0.30889575 0 0 0 -0.21653,-0.0904 z m 7.96851,0.74104 a 0.30889575,0.30889575 0 0 0 -0.22015,0.0904 l -3.52898,3.52898 a 0.30889575,0.30889575 0 0 0 0,0.43667 0.30889575,0.30889575 0 0 0 0.43718,0 l 3.52847,-3.52847 a 0.30889575,0.30889575 0 0 0 0,-0.43718 0.30889575,0.30889575 0 0 0 -0.21652,-0.0904 z m -7.30653,0.33849 a 0.30889575,0.30889575 0 0 0 -0.22066,0.091 l -2.9652,2.96519 a 0.30889575,0.30889575 0 0 0 0,0.43666 0.30889575,0.30889575 0 0 0 0.43719,0 l 2.96519,-2.96519 a 0.30889575,0.30889575 0 0 0 0,-0.43666 0.30889575,0.30889575 0 0 0 -0.21652,-0.091 z m 12.03751,0.15709 a 0.30889575,0.30889575 0 0 0 -0.22066,0.0904 l -2.72077,2.72076 a 0.30889575,0.30889575 0 0 0 0,0.43667 0.30889575,0.30889575 0 0 0 0.43718,0 l 2.72077,-2.72077 a 0.30889575,0.30889575 0 0 0 0,-0.43666 0.30889575,0.30889575 0 0 0 -0.21652,-0.0904 z m -1.87586,0.13384 a 0.30889575,0.30889575 0 0 0 -0.22066,0.0904 l -2.5864,2.5864 a 0.30889575,0.30889575 0 0 0 -0.0879,0.18035 0.30889575,0.30889575 0 0 0 -0.18035,0.0884 l -3.52898,3.52847 a 0.30889575,0.30889575 0 0 0 0,0.43666 0.30889575,0.30889575 0 0 0 0.43718,0 l 3.52847,-3.52846 a 0.30889575,0.30889575 0 0 0 0.0879,-0.18036 0.30889575,0.30889575 0 0 0 0.18035,-0.0878 l 2.58641,-2.58641 a 0.30889575,0.30889575 0 0 0 0,-0.43718 0.30889575,0.30889575 0 0 0 -0.21601,-0.0904 z m -1.74253,5.2e-4 a 0.30889575,0.30889575 0 0 0 -0.22066,0.0904 l -4.64106,4.64106 a 0.30889575,0.30889575 0 0 0 0,0.43667 0.30889575,0.30889575 0 0 0 0.43718,0 l 4.64106,-4.64106 a 0.30889575,0.30889575 0 0 0 0,-0.43667 0.30889575,0.30889575 0 0 0 -0.21652,-0.0904 z m -8.03258,1.06402 a 0.30889575,0.30889575 0 0 0 -0.22066,0.091 l -3.33313,3.33261 a 0.30889575,0.30889575 0 0 0 0,0.43718 0.30889575,0.30889575 0 0 0 0.43718,0 l 3.33313,-3.33312 a 0.30889575,0.30889575 0 0 0 0,-0.43667 0.30889575,0.30889575 0 0 0 -0.21652,-0.091 z m 15.34221,0.33641 a 0.30889575,0.30889575 0 0 0 -0.22066,0.0904 l -1.92494,1.92494 a 0.30889575,0.30889575 0 0 0 0,0.43718 0.30889575,0.30889575 0 0 0 0.43666,0 l 1.92495,-1.92494 a 0.30889575,0.30889575 0 0 0 0,-0.43718 0.30889575,0.30889575 0 0 0 -0.21601,-0.0904 z m -31.38568,0.0295 a 0.30889575,0.30889575 0 0 0 -0.22066,0.0904 l -3.7925297,3.79253 a 0.30889575,0.30889575 0 0 0 0,0.43667 0.30889575,0.30889575 0 0 0 0.43718,0 l 3.7925297,-3.79253 a 0.30889575,0.30889575 0 0 0 0,-0.43667 0.30889575,0.30889575 0 0 0 -0.21652,-0.0904 z m 32.39699,0.70125 a 0.30889575,0.30889575 0 0 0 -0.22066,0.0904 l -2.49184,2.49184 a 0.30889575,0.30889575 0 0 0 0,0.43666 0.30889575,0.30889575 0 0 0 0.43718,0 l 2.49184,-2.49183 a 0.30889575,0.30889575 0 0 0 0,-0.43667 0.30889575,0.30889575 0 0 0 -0.21652,-0.0904 z m -24.40058,0.0119 a 0.30889575,0.30889575 0 0 0 -0.22014,0.0904 l -3.5481,3.5481 a 0.30889575,0.30889575 0 0 0 0,0.43718 0.30889575,0.30889575 0 0 0 0.43666,0 l 3.54811,-3.5481 a 0.30889575,0.30889575 0 0 0 0,-0.43718 0.30889575,0.30889575 0 0 0 -0.21653,-0.0904 z m 8.13284,0.57723 a 0.30889575,0.30889575 0 0 0 -0.22066,0.0909 l -3.41891,3.41891 a 0.30889575,0.30889575 0 0 0 0,0.43667 0.30889575,0.30889575 0 0 0 0.43718,0 l 3.41891,-3.41892 a 0.30889575,0.30889575 0 0 0 0,-0.43666 0.30889575,0.30889575 0 0 0 -0.21652,-0.0909 z m 16.98397,0.43666 a 0.30889575,0.30889575 0 0 0 -0.22065,0.0904 l -5.89474,5.89473 a 0.30889575,0.30889575 0 0 0 0,0.43666 0.30889575,0.30889575 0 0 0 0.43719,0 l 5.89421,-5.89421 a 0.30889575,0.30889575 0 0 0 0,-0.43718 0.30889575,0.30889575 0 0 0 -0.21601,-0.0904 z m -33.48632,0.38809 a 0.30889575,0.30889575 0 0 0 -0.22066,0.0904 l -3.4189197,3.41891 a 0.30889575,0.30889575 0 0 0 0,0.43718 0.30889575,0.30889575 0 0 0 0.43667,0 l 3.4189097,-3.41891 a 0.30889575,0.30889575 0 0 0 0,-0.43718 0.30889575,0.30889575 0 0 0 -0.216,-0.0904 z m 8.24032,0.46974 a 0.30889575,0.30889575 0 0 0 -0.22066,0.0904 l -3.41891,3.41891 a 0.30889575,0.30889575 0 0 0 0,0.43666 0.30889575,0.30889575 0 0 0 0.43718,0 l 3.41891,-3.41891 a 0.30889575,0.30889575 0 0 0 0,-0.43666 0.30889575,0.30889575 0 0 0 -0.21652,-0.0904 z m 8.26203,0.44752 a 0.30889575,0.30889575 0 0 0 -0.22066,0.091 l -3.4184,3.4184 a 0.30889575,0.30889575 0 0 0 0,0.43718 0.30889575,0.30889575 0 0 0 0.43667,0 l 3.41891,-3.41891 a 0.30889575,0.30889575 0 0 0 0,-0.43667 0.30889575,0.30889575 0 0 0 -0.21652,-0.091 z m 17.33124,0.0894 a 0.30889575,0.30889575 0 0 0 -0.22066,0.0904 l -4.38423,4.38423 a 0.30889575,0.30889575 0 0 0 0,0.43667 0.30889575,0.30889575 0 0 0 0.43719,0 l 4.38422,-4.38423 a 0.30889575,0.30889575 0 0 0 0,-0.43667 0.30889575,0.30889575 0 0 0 -0.21652,-0.0904 z m -10.49703,0.045 a 0.30889575,0.30889575 0 0 0 -0.22066,0.0904 l -3.52847,3.52847 a 0.30889575,0.30889575 0 0 0 0,0.43666 0.30889575,0.30889575 0 0 0 0.43718,0 l 3.52847,-3.52846 a 0.30889575,0.30889575 0 0 0 0,-0.43667 0.30889575,0.30889575 0 0 0 -0.21652,-0.0904 z m -23.33708,0.69091 a 0.30889575,0.30889575 0 0 0 -0.22066,0.0904 l -3.4189097,3.41891 a 0.30889575,0.30889575 0 0 0 0,0.43667 0.30889575,0.30889575 0 0 0 0.43718,0 l 3.4189097,-3.41892 a 0.30889575,0.30889575 0 0 0 0,-0.43666 0.30889575,0.30889575 0 0 0 -0.21652,-0.0904 z m 8.24084,0.46871 a 0.30889575,0.30889575 0 0 0 -0.22014,0.0904 l -3.29489,3.29489 a 0.30889575,0.30889575 0 0 0 0,0.43718 0.30889575,0.30889575 0 0 0 0.43667,0 l 3.29488,-3.29489 a 0.30889575,0.30889575 0 0 0 0,-0.43718 0.30889575,0.30889575 0 0 0 -0.21652,-0.0904 z m 8.26203,0.44855 a 0.30889575,0.30889575 0 0 0 -0.22066,0.0904 l -2.84685,2.84686 a 0.30889575,0.30889575 0 0 0 0,0.43666 0.30889575,0.30889575 0 0 0 0.43718,0 l 2.84685,-2.84685 a 0.30889575,0.30889575 0 0 0 0,-0.43667 0.30889575,0.30889575 0 0 0 -0.21652,-0.0904 z m 12.12897,0.0651 a 0.30889575,0.30889575 0 0 0 -0.22065,0.0904 l -2.78175,2.78175 a 0.30889575,0.30889575 0 0 0 0,0.43666 0.30889575,0.30889575 0 0 0 0.43718,0 l 2.78175,-2.78174 a 0.30889575,0.30889575 0 0 0 0,-0.43667 0.30889575,0.30889575 0 0 0 -0.21653,-0.0904 z m -5.29476,0.0682 a 0.30889575,0.30889575 0 0 0 -0.22015,0.091 l -2.71353,2.71301 a 0.30889575,0.30889575 0 0 0 0,0.43666 0.30889575,0.30889575 0 0 0 0.43719,0 l 2.71301,-2.71301 a 0.30889575,0.30889575 0 0 0 0,-0.43666 0.30889575,0.30889575 0 0 0 -0.21652,-0.091 z m 3.44475,0.0393 a 0.30889575,0.30889575 0 0 0 -0.22014,0.0904 l -2.67426,2.67426 a 0.30889575,0.30889575 0 0 0 0,0.43666 0.30889575,0.30889575 0 0 0 0.43718,0 l 2.67374,-2.67373 a 0.30889575,0.30889575 0 0 0 0,-0.43719 0.30889575,0.30889575 0 0 0 -0.21652,-0.0904 z m -1.74202,5.2e-4 a 0.30889575,0.30889575 0 0 0 -0.22065,0.0904 l -2.67374,2.67374 a 0.30889575,0.30889575 0 0 0 0,0.43666 0.30889575,0.30889575 0 0 0 0.43718,0 l 2.67374,-2.67373 a 0.30889575,0.30889575 0 0 0 0,-0.43667 0.30889575,0.30889575 0 0 0 -0.21653,-0.0904 z m 8.44962,0.26045 a 0.30889575,0.30889575 0 0 0 -0.22066,0.0904 l -1.5167,1.5167 a 0.30889575,0.30889575 0 0 0 0,0.43718 0.30889575,0.30889575 0 0 0 0.43666,0 l 1.51671,-1.5167 a 0.30889575,0.30889575 0 0 0 0,-0.43718 0.30889575,0.30889575 0 0 0 -0.21601,-0.0904 z m -33.48891,0.39067 a 0.30889575,0.30889575 0 0 0 -0.22066,0.0904 l -2.0220997,2.0221 a 0.30889575,0.30889575 0 0 0 0,0.43718 0.30889575,0.30889575 0 0 0 0.43666,0 l 2.0220997,-2.02209 a 0.30889575,0.30889575 0 0 0 0,-0.43719 0.30889575,0.30889575 0 0 0 -0.216,-0.0904 z m 8.24032,0.46974 a 0.30889575,0.30889575 0 0 0 -0.22066,0.0904 l -1.55287,1.55288 a 0.30889575,0.30889575 0 0 0 0,0.43666 0.30889575,0.30889575 0 0 0 0.43718,0 l 1.55287,-1.55287 a 0.30889575,0.30889575 0 0 0 0,-0.43667 0.30889575,0.30889575 0 0 0 -0.21652,-0.0904 z m 8.26203,0.44751 a 0.30889575,0.30889575 0 0 0 -0.22014,0.091 l -1.10485,1.10433 a 0.30889575,0.30889575 0 0 0 0,0.43718 0.30889575,0.30889575 0 0 0 0.43667,0 l 1.10484,-1.10484 a 0.30889575,0.30889575 0 0 0 0,-0.43667 0.30889575,0.30889575 0 0 0 -0.21652,-0.091 z m -16.50287,0.82528 a 0.30889575,0.30889575 0 0 0 -0.22066,0.0904 l -0.28009,0.28009 a 0.30889575,0.30889575 0 0 0 0,0.43666 0.30889575,0.30889575 0 0 0 0.43719,0 l 0.28008,-0.28008 a 0.30889575,0.30889575 0 0 0 0,-0.43667 0.30889575,0.30889575 0 0 0 -0.21652,-0.0904 z"
       style="color:#000000;font-style:normal;font-variant:normal;font-weight:normal;font-stretch:normal;font-size:medium;line-height:normal;font-family:sans-serif;font-variant-ligatures:normal;font-variant-position:normal;font-variant-caps:normal;font-variant-numeric:normal;font-variant-alternates:normal;font-variant-east-asian:normal;font-feature-settings:normal;font-variation-settings:normal;text-indent:0;text-align:start;text-decoration:none;text-decoration-line:none;text-decoration-style:solid;text-decoration-color:#000000;letter-spacing:normal;word-spacing:normal;text-transform:none;writing-mode:lr-tb;direction:ltr;text-orientation:mixed;dominant-baseline:auto;baseline-shift:baseline;text-anchor:start;white-space:normal;shape-padding:0;shape-margin:0;inline-size:0;clip-rule:nonzero;display:inline;overflow:visible;visibility:visible;opacity:1;isolation:auto;mix-blend-mode:normal;color-interpolation:sRGB;color-interpolation-filters:linearRGB;solid-color:#000000;solid-opacity:1;vector-effect:none;fill:#edddd4;fill-opacity:1;fill-rule:nonzero;stroke:none;stroke-width:0.617791;stroke-linecap:round;stroke-linejoin:miter;stroke-miterlimit:4;stroke-dasharray:none;stroke-dashoffset:0;stroke-opacity:1;color-rendering:auto;image-rendering:auto;shape-rendering:auto;text-rendering:auto;enable-background:accumulate;stop-color:#000000;stop-opacity:1"
       id="path1846" />
    <text
       xml:space="preserve"
       style="font-weight:bold;font-size:10.5833px;line-height:1.25;font-family:Roboto;-inkscape-font-specification:'Roboto Bold';stroke-width:0.264583"
       x="324.78592"
       y="187.08865"
       id="text900"><tspan
         sodipodi:role="line"
         id="tspan898"
         x="324.78592"
         y="187.08865"
         style="stroke-width:0.264583" /></text>
    <text
       id="text2065"
       y="38.38279"
       x="51.048183"
       style="font-weight:bold;font-size:20.7482px;line-height:1.25;font-family:Montserrat;-inkscape-font-specification:'Montserrat Bold';stroke-width:0.518705"
       xml:space="preserve"><tspan
         style="stroke-width:0.518705"
         y="38.38279"
         x="51.048183"
         id="tspan2063"
         sodipodi:role="line"><tspan
           id="tspan2069"
           style="fill:#283d3b;fill-opacity:1">mate</tspan><tspan
           id="tspan2067"
           style="font-style:normal;font-variant:normal;font-weight:300;font-stretch:normal;font-family:Montserrat;-inkscape-font-specification:'Montserrat Light';fill:#772e25;fill-opacity:1;stroke-width:0.518705">Boy</tspan></tspan></text>
  </g>
</svg>
